<svg xmlns="http://www.w3.org/2000/svg" xml:space="preserve" id="Capa_1" x="0" y="0" style="enable-background:new 0 0 719 603" version="1.1" viewBox="0 0 719 603">
  <style>
    .st0{fill:#0071bc}
  </style>
  <path d="M77.3 545.6c-.4.1-.7-.3-.7-.7V150.8c0-.4.3-.9.7-.9l630.8-75.5c.4 0 .7.3.7.7V452c0 .4-.3.8-.7.9L77.3 545.6z" class="st0"/>
  <path d="M707.5 75.9v375.7L77.9 544V151.3l629.6-75.4m.6-3L77.3 148.4c-1.1.1-2 1.3-2 2.6v394.1c0 1.3.9 2.2 2 2l630.8-92.8c1.1-.2 2-1.3 2-2.5V74.9c.1-1.2-.8-2.1-2-2z" class="st0"/>
  <path d="M7.7 77.8 602.1 7.1c1-.1 4.3 1.5 4.8 1.2l99.4 65.9c1.8 1.7.9 1.8-.9 3-7.9 5.2-18.6 7-16.7 3.9M78.1 545.5l-70.5-67c-.6-.6-.9-1.4-.9-2.4L9 78.4c0-.3.3-.4.5-.3l68.6 72.1" style="fill:none;stroke-width:6;stroke:#0071bc;stroke-miterlimit:10"/>
  <path d="m98.2 137.2-59-52.6 9.4-1.1 48.9 43.8.7-.1-28.8-46 9.4-1.1 34.5 55.3-15.1 1.8zm9.2-50.5-8.3-9 31.1-3.6 8.6 8.9-31.4 3.7zm41.2 44.5-8.3-8.9 32.8-3.9 8.7 8.9-33.2 3.9zm11.7-1.3-50.2-53.3 9.1-1 50.9 53.2-9.8 1.1zm47.6-5.7-53.3-52.8 9.1-1 53.9 52.7-9.7 1.1zm0 0-9.1-9 35.6-4.2 9.5 8.9-36 4.3zm59.5-7.1L210.2 65l9.1-1 57.7 52-9.6 1.1zm0 0-9.8-8.9 35.6-4.2 10.2 8.8-36 4.3zm55.2-6.6-46.5-53.1 11.2-1.3 77.6 49.4-10.5 1.3-57.2-37.4-.6.1 36.6 39.9-10.6 1.1zm-3.9-10.6-10.5-8.8 26-3.1 10.8 8.8-26.3 3.1zm66.5 3.2-64.7-50.8 8.5-1 65.3 50.7-9.1 1.1zm-8.3-19.4-35.2-23.4-2.2.3-11-9.1 5.1-.6 33 22.3h.3l14.4 10.1-4.4.4zm2.1-.2-12.3-10.4h.4L341.2 50l5.1-.6 12.4 8.9-2.2.3 27 24.4-4.5.5zm33.2 16.4-66.4-50.5 8.5-1 67 50.3-9.1 1.2zM389 54.2l-11.5-8.4 31.1-3.6 11.8 8.3-31.4 3.7zm57.2 41.6-11.5-8.4 32.8-3.9 11.9 8.3-33.2 4zm11.7-1.4-69.4-49.9 9.1-1 70 49.8-9.7 1.1zM444.8 48l-12.4-8.5 32.3-3.7 12.8 8.4-32.7 3.8zm63.1 37.7-15.4-5.3-30.8-42 15.9 5.7 30.3 41.6zm-3.1 3.2-12.4-8.4 34.9-4.1 12.8 8.3-35.3 4.2zm55.8-6.7-61.8-50.4 11.2-1.3 92.9 46.6-10.5 1.3L523.7 43l-.6.1L571.2 81l-10.6 1.2zm-6.8-10.1-13.1-8.3 26-3.1 13.4 8.3-26.3 3.1zm69.8 2.6-80-48 9.1-1 80.6 47.9-9.7 1.1zm-20.2-18.6L589.6 48l9.1-1.1c2.2-.3 2.8-1.1 2-2.4-.9-1.4-3.2-3.1-7-5.3-3.8-2.2-7.3-3.9-10.6-5s-6-1.5-8.1-1.2l-8.8 1-14.6-8.2 9.5-1.1c5.3-.6 11.5.2 18.7 2.4 7.2 2.2 14.8 5.6 22.8 10.2 8.6 5 13.8 9 15.6 12.2 1.8 3.1-.1 5-5.6 5.6l-9.2 1zm46.9 15.4-48.1-21.2 10-1.2 49.7 21-11.6 1.4zM31.5 477.1l-7.2-7.9v-31.1l7.1 7.6.1 31.4zM66.3 515l-42-45.8v-8.4l41.9 45.4.1 8.8zm-17.4-18.9-7.2-7.9-.1-25.9 7.2 7.7.1 26.1zM66.3 515l-7.2-7.8-.3-32.3 7.1 7.6.4 32.5zm-.3-66.9c0 2.7-.1 5.1-.5 7.2-.4 2.1-.9 3.8-1.6 5.1L56 451c.9-1.5 1.5-3.2 2-5.1.5-1.9.7-3.9.7-5.9 0-2.4-.4-4.6-1.2-6.6-.7-2-1.8-3.7-3.2-5.1-1.8-1.9-3.2-2-4.3-.6l-2.8 3.7c-1.4 1.8-3.2 2.5-5.3 2.1-2.1-.4-4.4-2-7-4.7-3.6-3.8-6.4-8.1-8.4-12.8-2-4.7-3-9.4-3-14.2 0-2.8.4-5 1.3-6.6.9-1.6 2.2-2.5 3.8-2.7l6.1 12.1c-1.3.2-2.2.7-2.9 1.5-.7.8-1 1.9-1 3.3 0 1.9.4 3.7 1.1 5.5.7 1.8 1.8 3.4 3.2 4.9.9 1 1.8 1.5 2.6 1.6.8.1 1.5-.2 2.2-.9l2.8-3.3c1.5-1.7 3.2-2.4 5.2-2.1 2 .3 4.1 1.6 6.4 3.9 3.6 3.7 6.5 8.1 8.5 13.2 2.1 5 3.2 10.3 3.2 15.9zm-34.8-72.2-7-7.1v-34.3l6.9 6.8.1 34.6zm33.6 20.6-40.6-40.6v-8.4l40.5 40.2.1 8.8zm-33.7-75-6.9-6.6v-31.1l6.8 6.4.1 31.3zm33.2 32-40.1-38.7v-8.4l40 38.3.1 8.8zm-16.6-16-6.9-6.6-.1-25.9 6.8 6.4.2 26.1zm16.6 16-6.9-6.6-.3-32.3 6.8 6.4.4 32.5zM42.4 272l-2.9-2.7V263c0-2-.4-3.9-1.1-5.6-.7-1.7-1.9-3.2-3.3-4.5-1.3-1.2-2.3-1.6-3-1.1-.7.5-1 1.8-1 4v5.6l-6.7-5.4v-6.7c0-4.8.8-7.7 2.5-8.8 1.7-1.1 4.1-.3 7.2 2.5 2.7 2.4 4.7 5.2 6.2 8.6 1.5 3.4 2.2 6.9 2.2 10.7l-.1 9.7zm21.3 27.7-39.4-36.3V255l39.3 35.9.1 8.8zm-19.4-23.8-2.7-2.5-.1-12.9 2.7 2.4.1 13zm19.3 15.4-6.7-6.1-.1-8.4c0-2.4-.5-4.7-1.5-6.8-1-2.2-2.3-4-4-5.5-1.7-1.5-3-2-3.9-1.4-.9.6-1.4 2.1-1.3 4.6l.1 7.7-2.9-1.9-.1-12.8c0-4 .8-6.4 2.4-7.1 1.6-.7 4 .2 7 2.9 3.4 3 6.1 6.7 8 10.9 1.9 4.3 2.9 8.8 2.9 13.6l.1 10.3zm-.5-41.6-38.9-47.1v-10.4l38.4 19.2.1 9.5-29.1-15.7v.6L63 240.1l.1 9.6zm-7.4-13.3-6.7-5.8-.2-23.7 6.6 5.6.3 23.9zm6.4-66.9L24.2 139v-8.1L62 161l.1 8.5zm.1 4.8-29.6-15.9v3.5l-8.3-6.8v-6.9l29.6 15.9v-2.2l8.3 6.6v5.8zm.2 18.1-38.2-31.5v-8.1l38.1 31.1.1 8.5z" class="st0"/>
  <path d="M152.4 502.5c-1 1.5-1.1 3.3-.1 4.9.4.7.5 1.6.8 2.7 2.6 10.3.4 88.6 5.7 89 4.3.4 2.4-57-4.6-70.9-1.1-2.1-.5-4.7.5-6.9 3.3-6.6 8.6-21.1.5-21.3-2 0-1.8 1.2-2.8 2.5zm77-41.9c-1 1.5-1.1 3.3-.1 4.9.4.7.5 1.6.8 2.7 2.6 10.3.4 88.6 5.7 89 4.3.4 2.4-57-4.6-70.9-1.1-2.1-.5-4.7.5-6.9 3.3-6.6 8.6-21.1.5-21.3-2 0-1.8 1.2-2.8 2.5zm80.4-2.8c-1 1.5-1.1 3.3-.1 4.9.4.7.5 1.6.8 2.7 2.6 10.3.4 88.6 5.7 89 4.3.4 2.4-57-4.6-70.9-1.1-2.1-.5-4.7.5-6.9 3.3-6.6 8.6-21.1.5-21.3-2 0-1.8 1.1-2.8 2.5zm103.4 8.6c-1 1.5-1.1 3.3-.1 4.9.4.7.5 1.6.8 2.7 2.6 10.3.4 88.6 5.7 89 4.3.4 2.4-57-4.6-70.9-1.1-2.1-.5-4.7.5-6.9 3.3-6.6 8.6-21.1.5-21.3-2 0-1.8 1.1-2.8 2.5zm83.3-55c-1 1.5-1.1 3.3-.1 4.9.4.7.5 1.6.8 2.7 2.6 10.3.4 88.6 5.7 89 4.3.4 2.4-57-4.6-70.9-1.1-2.1-.5-4.7.5-6.9 3.3-6.6 8.6-21.1.5-21.3-2 0-1.8 1.2-2.8 2.5zm166.6 14.4c-1 1.5-1.1 3.3-.1 4.9.4.7.5 1.6.8 2.7 2.6 10.3.4 88.6 5.7 89 4.3.4 2.4-57-4.6-70.9-1.1-2.1-.5-4.7.5-6.9 3.3-6.6 8.6-21.1.5-21.3-1.9 0-1.8 1.1-2.8 2.5z" style="fill:#0071bc;stroke:#0071bc;stroke-miterlimit:10"/>
</svg>
