<?xml version="1.0" encoding="UTF-8"?>
<svg id="Capa_1" data-name="Capa 1" xmlns="http://www.w3.org/2000/svg" xmlns:xlink="http://www.w3.org/1999/xlink" viewBox="0 0 1557 1500">
  <defs>
    <style>
      .cls-1 {
        fill: #1ea3ec;
      }

      .cls-2 {
        fill: none;
      }

      .cls-3 {
        clip-path: url(#clippath-1);
      }

      .cls-4 {
        isolation: isolate;
      }

      .cls-5 {
        clip-path: url(#clippath-2);
      }

      .cls-6 {
        clip-path: url(#clippath);
      }
    </style>
    <clipPath id="clippath">
      <polygon class="cls-2" points="771.52 1363.36 769.8 755.02 1310.52 442.83 1312.24 1051.17 771.52 1363.36"/>
    </clipPath>
    <clipPath id="clippath-1">
      <polygon class="cls-2" points="208.9 1094.16 210.65 483.1 690.19 758.42 688.44 1369.47 208.9 1094.16"/>
    </clipPath>
    <clipPath id="clippath-2">
      <polygon class="cls-2" points="204.39 389.93 757.86 68.3 1255.26 355.47 701.8 677.11 204.39 389.93"/>
    </clipPath>
  </defs>
  <g>
    <path class="cls-1" d="M718.4,1420.99c-1.39-216.58-2.09-466.91-2.59-682.97,0,0-.01-5.42-.01-5.42.15-1.81-.59-3.61,1.36-5.42,0,0,3.49,0,3.49,0,1.95,1.81,1.21,3.61,1.36,5.42v5.42c-.38,155.14-.92,353.63-1.62,509.52,0,0-.98,173.45-.98,173.45,0,0-1,0-1,0h0Z"/>
    <path class="cls-1" d="M121.96,396.19s598.27,327.35,598.27,327.35l-3.41.08s569.81-345.23,569.81-345.23c-1.69,1.05-566.4,351.08-567.95,352.04-1.74-.38-594.88-333.63-596.72-334.23h0Z"/>
  </g>
  <g class="cls-4">
    <g class="cls-6">
      <path class="cls-1" d="M906.01,1171.1l-1.08-380.26,97.41-56.24c111.94-63.11,165.87-24.31,166.19,88.23.37,129.34-58.17,230.29-166.85,293.03l-95.67,55.23M1020.92,610.03l-251.12,144.98,1.72,608.34,248.25-143.33c161.69-93.35,292.13-288.91,291.58-483.66-.45-160.49-103.24-234.41-290.43-126.33"/>
    </g>
  </g>
  <g class="cls-4">
    <g class="cls-3">
      <path class="cls-1" d="M672.23,748.11L210.65,483.1l-1.74,611.05,464.02,266.41,15.86-109.83-344.73-197.92.4-139.08,310.02,177.99.34-118.74-310.02-177.99.33-115.74,326.78,187.61.34-118.74"/>
    </g>
  </g>
  <g class="cls-4">
    <g class="cls-5">
      <g>
        <path class="cls-1" d="M983.84,198.77l-37.43-21.61c-77.37-44.67-160.56-47.03-238.05-2l-59.7,34.69c-50.08,29.11-77.25,26.64-128.91-3.19l-76.06,44.2c53.11,30.66,55.18,46.04,6.47,74.34l-64.61,37.54c-84.75,49.25-62.8,95.52,6.86,135.73l37.97,21.92,67.11-39-12.25-7.07c-46.47-26.83-31.68-47.32,5.73-69.06l52.75-30.66c66.55-38.67,64.44-61.75,41.54-87.67,34.38,9.98,83.03,15.27,147.84-22.39l50.76-29.5c44.29-25.74,75.52-29.76,124.92-1.23l7.39,4.27,67.66-39.32"/>
        <path class="cls-1" d="M1067.24,246.92l-37.97-21.92-67.13,39.01,12.25,7.07c46.47,26.83,31.71,47.32-5.71,69.06l-52.76,30.66c-66.55,38.67-64.45,61.75-41.55,87.66-34.37-9.98-83.02-15.27-147.83,22.4l-50.76,29.5c-44.28,25.73-75.53,29.75-124.93,1.23l-7.39-4.27-67.65,39.31,37.43,21.61c77.37,44.67,160.55,47.04,238.03,2.01l59.7-34.69c50.08-29.11,77.25-26.64,128.91,3.19l76.06-44.2c-53.1-30.66-55.18-46.04-6.46-74.35l64.59-37.54c84.76-49.26,62.81-95.52-6.85-135.74"/>
      </g>
    </g>
  </g>
</svg>